<svg width="69" height="811" viewBox="0 0 69 811" fill="none" xmlns="http://www.w3.org/2000/svg">
<path d="M41.5002 0.5V187.5C12.3165 195.009 14.5001 228.5 41.5002 230C66.1772 227.36 70.6911 199.113 47.0001 187.5C43.6758 191.854 45.9446 199.44 47.0001 198.5C48.0556 197.56 41.5001 200 39.5001 198.5C37.5 197 34.0809 200.488 39.5001 205C37.1322 206.227 35.7683 206.654 33.0001 205C30.3909 204.423 29.4682 204.664 33.0001 210.5C38.8438 211.044 40.0133 208.679 44.5001 210.5C43.7197 217.035 38.0001 218.5 44.5001 216.5C51.0001 214.5 50.5039 215.048 52.5001 216.5C52.5001 216.5 50.0001 219.5 52.5001 221.5C55.0001 223.5 39.5 227 40.5001 225.5C41.5001 224 43.9122 219.607 38.5001 221.5C35.7664 220.719 34.0001 221.5 31.5001 219.5C29.0001 217.5 25.5001 207 25.5001 207C22.7682 201.242 16.5001 198 16.5001 210.5C18.4151 235.93 24.7364 233.379 41.5002 238.5V385.5C41.5002 385.5 46.0001 385.5 50.0001 385.5C54.0001 385.5 53.5001 391 53.5001 391C53.5001 391 53.5001 420.5 53.5001 422.5C53.5001 424.5 53.0001 426.5 50.0001 426.5C47.0001 426.5 36.5001 426.5 32.0001 426.5C27.5001 426.5 28.5001 422.5 28.5001 422.5V391C28.5001 391 28.0001 386 31.5001 385.5C35.0001 385 35.5001 385.5 35.5001 385.5C35.5001 385.5 34.0001 390 35.5001 390C37.0001 390 44.5001 390 47.0001 390C49.5001 390 47.8533 384 47.8533 384C46.144 378.297 47.2261 379.724 55.5001 383C61.0115 385.472 58.5963 388.45 59.0001 398V425.5C59.5001 431.5 53.3097 432.816 41.5002 432.5V581.5L51.5001 557.5H66.0001L61.5001 562C61.5001 572 61.5001 592.2 61.5001 593C61.5001 593.8 64.5001 596.333 66.0001 597.5H46.5001L50.0001 594V569L39.0001 597.5H36.5001L23.0001 568V590L29.5001 597.5H14.0001L19.5001 590V564.5L14.0001 557.5H29.5001L36.5001 581.5C36.5001 581.5 36.3803 591.12 36.5001 550.5C36.6199 509.88 -46.3266 592.301 41.5002 621V817.5" stroke="#FF0000" stroke-width="2"/>
</svg>
